# xmcd CD database file generated by Grip 2.94
# 
# Track frame offsets:
#       150
#       13400
#       26602
#       38715
#       51125
#       63267
#       77132
#       87767
#       100325
#       113927
#       128305
#       142475
#       165957
#       181925
#       193952
#       209275
#       224602
#       239547
#       254660
#       268202
# 
# Disc length: 3716 seconds
# 
# Revision: 3
# Processed by: cddbd v1.4b41PL1 Copyright (c) Steve Scherf et al.
# Submitted via: Grip 2.94
# 
DISCID=2b0e8214
DTITLE=Dolly Parton - The Greatest Hits
DYEAR=1900
DGENRE=
TTITLE0=I Will Always Love You
TTITLE1=Here You Come Again
TTITLE2=Jolene
TTITLE3=9 To 5
TTITLE4=The Bargain Store
TTITLE5=Coat of Many Colours
TTITLE6=All I Can Do
TTITLE7=The Love I Used To Call Mine
TTITLE8=The Seeker
TTITLE9=We Use To
TTITLE10=Lonely Comin' Down
TTITLE11=You Are
TTITLE12=Heartbreaker
TTITLE13=Touch Your Woman
TTITLE14=Think About Love
TTITLE15=Old Flames can't Hold A Candle To You
TTITLE16=But You Know I Love You
TTITLE17=You're The Only One
TTITLE18=I Really Don't Want To Know
TTITLE19=Love Is Like A Butterfly
EXTD=TelStart TCD2739\n(c) Telstar Records plc
EXTT0=
EXTT1=
EXTT2=
EXTT3=
EXTT4=
EXTT5=
EXTT6=
EXTT7=
EXTT8=
EXTT9=
EXTT10=
EXTT11=
EXTT12=
EXTT13=
EXTT14=
EXTT15=
EXTT16=
EXTT17=
EXTT18=Duet with Willie Nelson
EXTT19=
PLAYORDER=
